<svg width="357" height="351" viewBox="0 0 357 351" fill="none" xmlns="http://www.w3.org/2000/svg">
<path d="M230 7.99971C231.072 8.28459 232.143 8.56948 233.247 8.86299C274.642 20.5944 311.42 50.9328 333.168 87.6989C348.015 114.448 356.584 141.622 356.447 172.41C356.438 175.299 356.467 178.187 356.499 181.076C356.568 198.75 353.515 215.038 347.75 231.75C347.361 232.897 346.971 234.043 346.569 235.225C343.421 244.257 339.687 252.676 335 261C334.311 262.264 333.622 263.528 332.934 264.793C329.73 270.599 326.502 276.124 322.032 281.058C319.134 286.513 321.604 293.406 323 299.062C325.545 309.42 325.545 309.42 325 314C323.473 316.308 322.587 316.88 319.879 317.433C313.693 317.444 313.693 317.444 310.563 315.437C307.791 311.112 307 307.091 307 302C303.31 304.331 299.932 306.846 296.563 309.625C262.775 336.745 222.244 350.216 179.125 350.25C177.965 350.251 177.965 350.251 176.781 350.252C157.496 350.225 139.458 347.697 121 342C120.338 341.795 119.676 341.591 118.993 341.381C96.2047 334.102 75.929 321.301 58.209 305.439C55.5762 303.121 53.5512 301.423 50.0005 301C49.7324 302.108 49.4642 303.217 49.188 304.359C46.1941 315.774 46.1941 315.774 43.0981 318.953C39.2461 320.934 35.3061 321.701 31.0005 321C29.3247 319.724 29.3247 319.724 28.0005 318C27.3812 311.492 30.1252 304.514 32.0005 298.375C35.7391 288.503 35.7391 288.503 34.8833 278.691C34.3032 277.989 33.7231 277.286 33.1255 276.562C21.9495 261.809 14.6266 244.536 9.00049 227C8.64986 225.931 8.29924 224.862 7.93799 223.761C-1.16884 193.899 -1.43581 158.997 7.00049 129C7.20915 128.215 7.41782 127.431 7.63281 126.623C10.7124 115.282 15.7077 104.901 20.9499 94.4118C21.4578 93.3928 21.9656 92.3738 22.4888 91.3239C23.1777 89.964 23.1777 89.964 23.8806 88.5766C26.4166 82.741 25.6501 78.7375 24.0005 72.7497C21.4933 62.6966 22.3395 56.3992 25.7505 46.6872C25.9901 45.9923 26.2297 45.2974 26.4766 44.5815C28.2023 40.0127 29.8345 37.5375 34.0005 34.9997C36.976 34.7749 39.5467 34.7642 42.4927 34.9606C44.1853 35.0211 45.878 35.0796 47.5708 35.1364C50.2096 35.247 52.8448 35.3728 55.481 35.5344C68.616 36.292 76.1937 34.4732 86.4809 26.1846C89.6026 23.7505 93.1155 21.9888 96.6255 20.1872C97.3344 19.8189 98.0433 19.4505 98.7737 19.071C105.014 15.8868 111.361 13.2442 118 10.9997C118.623 10.7886 119.245 10.5775 119.886 10.3601C155.867 -1.71616 193.52 -2.18367 230 7.99971Z" fill="#193132"/>
<path d="M236 18.0006C236.741 18.2842 237.482 18.5678 238.246 18.86C282.841 36.1413 317.217 68.4896 336.93 112.122C352.144 147.145 351.879 184.382 343 221.001C342.752 222.055 342.505 223.11 342.25 224.196C340.576 230.872 337.973 236.81 335 243.001C334.317 244.498 333.636 245.997 332.957 247.497C328.652 256.918 324.142 265.617 318 274.001C316.118 271.177 315.594 269.833 314.963 266.624C314.786 265.743 314.609 264.862 314.427 263.954C314.152 262.529 314.152 262.529 313.871 261.075C313.677 260.094 313.482 259.114 313.282 258.104C312.661 254.967 312.049 251.827 311.438 248.688C311.022 246.584 310.606 244.481 310.189 242.378C306.954 225.988 306.954 225.988 306 220.001C306.56 219.991 307.12 219.982 307.697 219.972C310.236 219.919 312.774 219.835 315.312 219.751C316.194 219.736 317.075 219.722 317.982 219.708C322.825 219.641 322.825 219.641 326.938 217.438C328.394 214.097 329.617 210.731 330.688 207.251C330.912 206.573 331.137 205.895 331.369 205.196C332.901 200.296 333.533 196.134 333 191.001C330.497 186.702 327.488 184.871 323.062 182.751C321.533 182 321.533 182 319.973 181.235C314.361 178.905 309.17 178.873 303.188 178.938C302.399 178.943 301.611 178.947 300.799 178.952C298.866 178.963 296.933 178.981 295 179.001C293.856 173.236 292.717 167.47 291.582 161.703C291.195 159.742 290.807 157.78 290.418 155.819C289.858 153 289.304 150.18 288.75 147.36C288.575 146.484 288.4 145.608 288.22 144.705C288.06 143.884 287.899 143.064 287.734 142.218C287.592 141.499 287.45 140.779 287.304 140.038C287 138.001 287 138.001 287 134.001C290.666 133.042 294.333 132.084 298 131.126C299.03 130.856 300.06 130.587 301.121 130.309C302.133 130.045 303.145 129.781 304.188 129.508C305.179 129.248 306.17 128.988 307.191 128.719C309.662 128.087 312.139 127.512 314.625 126.946C318.095 126.302 318.095 126.302 320 123.751C321.134 120.633 321.299 118.293 321 115.001C318.576 112.577 312.088 113.568 308.73 113.543C298.458 113.715 289.069 116.46 279.223 119.158C273.669 120.61 268.056 121.767 262.438 122.938C254.78 124.543 247.133 126.181 239.508 127.934C238.801 128.096 238.094 128.258 237.366 128.425C233.922 129.216 230.479 130.012 227.039 130.817C225.8 131.102 224.561 131.387 223.285 131.68C222.191 131.935 221.096 132.19 219.969 132.453C217.228 132.959 214.778 133.109 212 133.001C207.84 119.539 204.194 105.943 200.807 92.2684C198.962 84.8198 197.043 77.3979 195 70.0006C194.542 68.27 194.542 68.27 194.074 66.5045C191.796 58.3964 188.989 50.5045 181.812 45.5006C178.343 43.6504 175.486 42.8623 171.617 42.5358C170.715 42.459 169.813 42.3822 168.883 42.3031C167.89 42.2239 166.898 42.1447 165.875 42.0631C164.822 41.9781 163.77 41.8931 162.685 41.8055C137.141 39.7989 111.613 38.6145 86 38.0006C86 37.3406 86 36.6806 86 36.0006C88.4064 34.3429 90.7913 32.8421 93.3125 31.3756C94.4542 30.7101 94.4542 30.7101 95.6189 30.0311C136.944 6.53758 191.341 0.598526 236 18.0006Z" fill="#8A947C"/>
<path d="M36.998 41C39.1332 41.0053 41.268 41.0892 43.4004 41.1992C44.1083 41.2341 44.8162 41.269 45.5456 41.305C48.0092 41.4277 50.4723 41.5577 52.9355 41.6875C54.7196 41.7778 56.5037 41.8675 58.2878 41.9568C61.3771 42.1115 64.4663 42.2669 67.5554 42.4241C77.3168 42.9203 87.0793 43.3924 96.8422 43.8606C102.373 44.126 107.904 44.3927 113.435 44.6592C118.076 44.8828 122.718 45.1061 127.36 45.3285C131.819 45.5422 136.278 45.7579 140.737 45.975C142.397 46.0554 144.057 46.1353 145.717 46.2144C150.149 46.4259 154.58 46.6476 159.01 46.8917C160.943 46.997 162.877 47.0939 164.81 47.1906C165.96 47.2598 167.109 47.3289 168.294 47.4001C169.282 47.4558 170.271 47.5115 171.289 47.5688C176.028 48.3232 179.758 50.5065 182.998 54C187.171 60.1073 189.044 66.1175 190.436 73.3125C191.99 80.717 193.755 87.9608 195.998 95.1875C198.687 103.886 201.076 112.63 203.342 121.447C204.552 126.155 205.774 130.859 206.998 135.562C207.25 136.531 207.502 137.5 207.761 138.499C209.54 145.316 211.397 152.109 213.306 158.891C214.787 164.173 216.145 169.477 217.42 174.812C217.925 177.023 217.925 177.023 218.998 179C219.038 181 219.041 183 218.998 185C210.6 185.526 202.202 186.048 193.804 186.565C189.903 186.805 186.002 187.046 182.102 187.291C178.328 187.528 174.554 187.761 170.781 187.991C169.35 188.079 167.92 188.169 166.49 188.259C157.985 188.797 149.522 189.126 140.998 189C138.773 179.864 136.66 170.707 134.748 161.5C134.573 160.689 134.398 159.878 134.218 159.042C133.11 153.597 132.842 148.556 132.998 143C134.074 142.685 135.151 142.371 136.26 142.047C136.96 141.842 137.66 141.636 138.382 141.425C139.931 140.971 141.48 140.519 143.03 140.067C147.656 138.714 152.235 137.264 156.811 135.75C162.047 134.103 166.939 133.589 172.396 133.258C175.884 132.912 178.183 132.094 180.998 130C183.515 126.14 184.136 123.526 183.998 119C174.167 118.619 165.19 119.373 155.564 121.452C152.589 122.087 149.609 122.689 146.627 123.289C129.819 126.691 113.095 130.415 96.3774 134.233C91.1319 135.423 85.8764 136.567 80.6215 137.714C75.7767 138.788 71.0087 140.047 66.2597 141.484C63.7764 142.051 61.5367 142.09 58.998 142C55.7499 130.876 52.9411 119.694 50.375 108.393C48.1616 98.6536 45.8326 88.9445 43.4743 79.239C42.207 74.0195 40.9428 68.8003 39.7363 63.5664C39.5547 62.7795 39.3731 61.9926 39.186 61.1819C38.7278 59.1846 38.2748 57.1861 37.8222 55.1875C37.0802 52.0265 37.0802 52.0265 35.873 49.2344C34.7751 46.4308 35.13 44.8409 35.998 42C36.328 41.67 36.658 41.34 36.998 41Z" fill="#C37734"/>
<path d="M291 234C294.457 246.607 297.615 259.275 300.457 272.034C300.777 273.468 301.1 274.9 301.426 276.332C301.886 278.359 302.333 280.388 302.777 282.418C303.038 283.591 303.298 284.765 303.566 285.974C304.214 290.49 304.214 290.49 303 293C300.424 295.626 298.85 296.887 295.173 297.378C294.16 297.322 293.148 297.265 292.105 297.207C290.985 297.154 289.864 297.1 288.709 297.045C286.966 296.93 286.966 296.93 285.188 296.813C284.037 296.755 282.887 296.698 281.701 296.639C277.279 296.403 272.917 296.131 268.531 295.505C262.128 294.681 255.665 294.648 249.219 294.465C247.795 294.422 246.372 294.379 244.948 294.335C241.227 294.221 237.505 294.112 233.783 294.004C229.975 293.893 226.167 293.778 222.359 293.662C214.906 293.437 207.453 293.217 200 293C200.304 291.417 200.612 289.835 200.921 288.252C201.178 286.93 201.178 286.93 201.439 285.582C202.235 281.92 203.427 278.461 204.688 274.938C207.336 267.334 209.565 259.64 211.707 251.879C212.026 250.732 212.345 249.584 212.673 248.402C213.451 245.602 214.227 242.801 215 240C224.023 239.215 233.046 238.432 242.07 237.653C246.26 237.291 250.45 236.929 254.64 236.564C258.686 236.211 262.732 235.861 266.778 235.513C268.319 235.38 269.861 235.246 271.402 235.111C273.565 234.922 275.729 234.736 277.893 234.551C279.123 234.444 280.354 234.338 281.621 234.228C284.761 234.016 287.855 233.958 291 234Z" fill="#89937B"/>
<path d="M29.0014 96C31.0014 97 31.0014 97 31.6682 98.9924C31.8645 99.8728 32.0609 100.753 32.2632 101.66C32.4912 102.664 32.7192 103.668 32.9541 104.703C33.1966 105.812 33.4391 106.92 33.6889 108.062C33.9495 109.222 34.2101 110.382 34.4785 111.576C35.33 115.382 36.1677 119.19 37.0014 123C37.2765 124.255 37.5516 125.51 37.8349 126.804C38.975 132.013 40.1128 137.224 41.2453 142.435C44.9737 159.566 48.9042 176.651 52.8667 193.729C53.1329 194.877 53.3991 196.025 53.6733 197.207C53.9063 198.208 54.1393 199.21 54.3794 200.241C54.5847 201.152 54.7899 202.062 55.0014 203C55.2153 203.83 55.4291 204.66 55.6494 205.516C56.0704 208.486 55.6535 210.627 54.9624 213.543C54.7139 214.609 54.4654 215.674 54.2095 216.772C53.9346 217.899 53.6597 219.026 53.3764 220.188C53.1016 221.346 52.8267 222.504 52.5434 223.697C50.5699 231.915 48.4247 240.075 46.0796 248.195C44.9694 252.113 43.9696 256.045 43.0014 260C42.0014 264 41.0014 268 40.0014 272C23.7654 256.616 17.0209 228.837 12.0014 208C11.7954 207.175 11.5893 206.349 11.3769 205.499C9.35481 196.209 9.60441 186.71 9.62645 177.25C9.62732 176.337 9.6282 175.424 9.6291 174.483C9.7188 146.164 15.4028 120.972 29.0014 96Z" fill="#8A947C"/>
<path d="M121.688 248.813C122.603 248.812 123.519 248.811 124.463 248.811C130.865 248.865 130.865 248.865 132 250C132.458 252.18 132.863 254.37 133.25 256.563C134.768 265.028 136.542 273.434 138.374 281.836C138.584 282.822 138.795 283.809 139.012 284.824C139.202 285.702 139.392 286.579 139.589 287.483C140.006 290.038 140.028 292.417 140 295C130.699 295.654 121.398 296.306 112.096 296.956C107.777 297.258 103.458 297.56 99.1389 297.864C94.9699 298.157 90.8007 298.449 86.6315 298.739C85.0419 298.85 83.4523 298.962 81.8628 299.074C79.6343 299.232 77.4057 299.387 75.177 299.541C73.909 299.63 72.6411 299.719 71.3347 299.81C63.359 300.264 63.359 300.264 60.3242 298.031C59.4541 297.196 58.584 296.361 57.6875 295.5C56.363 294.247 56.363 294.247 55.0117 292.969C54.3479 292.319 53.684 291.67 53 291C54.5045 283.809 56.426 276.797 58.5 269.75C58.8081 268.688 59.1162 267.626 59.4336 266.531C62.353 256.558 62.353 256.558 64 253C68.4132 251.291 73.8579 251.731 78.5625 251.563C85.7506 251.274 92.8532 250.752 100 249.938C107.241 249.133 114.401 248.813 121.688 248.813Z" fill="#89937B"/>
<path d="M328 195.001C327.685 196.442 327.368 197.884 327.051 199.325C326.875 200.127 326.699 200.93 326.517 201.757C325.949 204.222 325.254 206.607 324.438 209.001C324.189 209.743 323.94 210.486 323.684 211.251C323 213.001 323 213.001 322 214.001C319.658 214.27 317.338 214.479 314.988 214.649C314.249 214.706 313.51 214.763 312.748 214.822C310.27 215.011 307.791 215.194 305.312 215.376C303.57 215.507 301.827 215.638 300.084 215.77C285.402 216.867 270.71 217.818 256.017 218.753C243.513 219.549 231.036 220.454 218.559 221.594C205.024 222.824 191.586 223.135 178 223.001C178.263 221.52 178.536 220.041 178.812 218.563C178.963 217.739 179.114 216.916 179.27 216.067C179.903 213.406 180.672 210.898 181.546 208.309C181.953 207.097 181.953 207.097 182.369 205.862C182.578 205.247 182.786 204.633 183 204.001C213.725 201.474 244.455 199.01 275.215 196.951C277.789 196.778 280.363 196.603 282.936 196.425C297.983 195.391 312.917 194.753 328 195.001Z" fill="#C07635"/>
<path d="M123 206C123.141 206.751 123.282 207.502 123.427 208.275C124.073 211.705 124.724 215.134 125.375 218.562C125.597 219.744 125.818 220.925 126.047 222.142C127.368 229.203 127.368 229.203 129.164 236.152C130 239 130 239 130 242C123.118 242.577 116.235 243.146 109.352 243.709C107.015 243.901 104.679 244.095 102.343 244.291C77.4254 246.378 77.4254 246.378 67 246C67.7217 239.716 69.2573 233.732 70.875 227.625C71.1315 226.635 71.388 225.645 71.6523 224.625C73.2178 218.662 74.9854 212.826 77 207C92.3376 206.383 107.649 205.817 123 206Z" fill="#C27734"/>
<path d="M196 243C195.532 251.048 193.743 258.491 191.625 266.25C189.167 275.468 186.871 284.642 185 294C176.75 294 168.5 294 160 294C157.775 284.729 155.949 275.464 154.375 266.062C154.158 264.788 153.942 263.514 153.719 262.201C152.802 256.802 151.899 251.401 151 246C155.801 245.567 160.602 245.14 165.404 244.718C167.034 244.574 168.663 244.429 170.292 244.282C178.883 243.507 187.364 242.79 196 243Z" fill="#89937A"/>
<path d="M129 154C129.1 154.653 129.2 155.305 129.304 155.978C131.267 168.691 133.353 181.347 135.973 193.942C138.346 205.449 140.382 217.03 142.451 228.595C143.109 232.274 143.77 235.952 144.431 239.63C144.638 240.781 144.638 240.781 144.848 241.955C149.566 268.227 154.333 294.483 159.459 320.678C159.634 321.577 159.81 322.475 159.99 323.401C160.311 325.046 160.634 326.69 160.96 328.333C161.534 331.276 162 333.994 162 337C160.02 337.33 158.04 337.66 156 338C154.477 333.707 153.415 329.495 152.555 325.024C152.284 323.635 152.013 322.246 151.742 320.857C151.601 320.128 151.46 319.399 151.315 318.648C148.707 305.176 145.893 291.761 142.875 278.375C139.705 264.289 136.76 250.174 134 236C133.172 231.77 132.339 227.541 131.5 223.313C131.294 222.271 131.087 221.23 130.874 220.157C129.53 213.451 128.056 206.785 126.5 200.125C123.097 185.536 120.441 170.778 118 156C121.858 154.185 124.767 153.906 129 154Z" fill="#BD7634"/>
<path d="M112 150C112.17 150.995 112.34 151.991 112.516 153.016C114.1 162.177 115.822 171.298 117.729 180.398C117.895 181.201 118.06 182.005 118.23 182.832C118.453 183.895 118.453 183.895 118.68 184.98C119 187 119 187 119 191C106.674 192.517 94.4075 193.478 82 194C82.5446 187.324 83.8855 181.425 85.9375 175.063C87.8529 169.065 89.4261 163.276 90.3101 157.029C91 155 91 155 92.7737 153.754C94.8344 152.943 96.8335 152.453 99 152C100.196 151.608 101.393 151.217 102.625 150.813C105.909 150.022 108.643 149.939 112 150Z" fill="#C07734"/>
<path d="M266 140C266.171 140.776 266.343 141.552 266.519 142.352C267.303 145.902 268.089 149.451 268.875 153C269.144 154.221 269.414 155.442 269.691 156.7C271.331 164.127 271.331 164.127 273.195 171.5C273.956 174.808 274.169 177.623 274 181C261.635 182.275 249.439 183.349 237 183C238.425 174.317 240.451 165.836 242.625 157.313C242.953 156.014 243.282 154.715 243.609 153.416C244.403 150.277 245.2 147.138 246 144C248.205 143.324 250.414 142.659 252.625 142C253.855 141.629 255.085 141.258 256.352 140.875C259.759 140.058 262.524 139.932 266 140Z" fill="#899379"/>
<path d="M281.445 221.902C283.089 221.907 283.089 221.907 284.766 221.912C285.874 221.92 286.983 221.928 288.125 221.937C289.272 221.942 290.42 221.946 291.602 221.951C294.401 221.962 297.201 221.979 300 222C300.33 223.65 300.66 225.3 301 227C292.344 228.881 283.671 229.61 274.857 230.225C270.529 230.528 266.203 230.852 261.876 231.174C260.53 231.274 260.53 231.274 259.157 231.376C249.574 232.094 240.002 232.933 230.43 233.789C228.719 233.941 227.009 234.093 225.298 234.245C218.406 234.859 211.513 235.477 204.622 236.098C170.871 239.138 170.871 239.138 158.133 239.773C157.288 239.816 156.444 239.859 155.574 239.904C153.717 239.981 151.858 239.998 150 240C149 239 149 239 148.902 236.933C148.914 236.109 148.926 235.286 148.938 234.437C148.947 233.611 148.956 232.784 148.965 231.933C148.976 231.295 148.988 230.657 149 230C149.742 229.985 150.484 229.97 151.249 229.955C174.744 229.452 198.122 227.946 221.554 226.208C225.362 225.927 229.171 225.652 232.98 225.377C237.578 225.045 242.176 224.71 246.773 224.375C247.628 224.312 248.483 224.25 249.364 224.186C260.06 223.417 260.06 223.417 270.736 222.42C274.318 222.043 277.84 221.883 281.445 221.902Z" fill="#BE7531"/>
<path d="M83 166C82.8197 166.65 82.6394 167.301 82.4536 167.971C81.0818 172.955 79.7488 177.946 78.4922 182.961C75.1491 196.259 71.4181 209.361 67.2693 222.43C64.9311 229.844 62.8208 237.27 60.9375 244.812C58.7005 253.746 55.9555 262.425 52.9673 271.135C50.6958 277.788 48.6796 284.472 46.8125 291.25C42.0868 308.19 42.0868 308.19 39 313C36.8516 313.797 36.8516 313.797 35 314C36.8844 305.093 38.8529 296.249 41.375 287.5C43.4985 280.118 45.2539 272.681 46.9375 265.187C48.9719 256.152 51.2677 247.255 53.8794 238.371C55.5038 232.82 56.9869 227.255 58.3125 221.625C58.4719 220.953 58.6312 220.281 58.7954 219.589C59.4958 216.544 60.0512 213.566 60.418 210.461C60.9555 207.264 61.9418 204.847 63.2386 201.908C64.4685 198.825 65.1399 195.621 65.832 192.386C66.1583 190.96 66.4858 189.533 66.8145 188.107C67.32 185.886 67.8173 183.665 68.2942 181.438C68.7624 179.269 69.263 177.109 69.7695 174.949C70.0542 173.663 70.3388 172.378 70.6321 171.053C72 168 72 168 74.8269 166.565C77.6507 166.062 80.1431 165.832 83 166Z" fill="#BD7633"/>
<path d="M322 187.999C322 188.329 322 188.659 322 188.999C321.103 189.055 320.206 189.11 319.281 189.167C315.919 189.376 312.557 189.587 309.195 189.799C307.746 189.89 306.297 189.98 304.848 190.07C302.753 190.199 300.658 190.331 298.562 190.464C296.677 190.582 296.677 190.582 294.754 190.702C292.148 190.909 289.606 191.165 287.02 191.508C283.061 192.023 279.108 192.243 275.121 192.394C273.567 192.461 272.013 192.528 270.459 192.595C269.642 192.63 268.826 192.665 267.985 192.701C248.319 193.557 228.743 195.091 209.14 196.847C192.901 198.298 176.865 199.142 160.562 199.062C158.752 199.057 156.941 199.052 155.131 199.048C150.754 199.037 146.377 199.02 142 198.999C142 197.679 142 196.359 142 194.999C142.935 194.949 143.869 194.899 144.832 194.848C148.433 194.653 152.034 194.455 155.635 194.255C157.169 194.17 158.702 194.087 160.236 194.005C169.72 193.496 179.178 192.84 188.641 192.023C199.945 191.05 211.255 190.327 222.582 189.681C228.029 189.369 233.475 189.048 238.922 188.726C240.508 188.632 240.508 188.632 242.127 188.537C251.515 187.978 260.894 187.329 270.273 186.631C277.317 186.108 284.36 185.663 291.416 185.341C313.821 184.245 313.821 184.245 322 187.999Z" fill="#B87530"/>
<path d="M31.0003 54C33.3705 56.3702 33.5842 57.6934 34.3324 60.9258C34.5706 61.938 34.8088 62.9503 35.0543 63.9932C35.3046 65.0885 35.5549 66.1839 35.8128 67.3125C36.0793 68.4504 36.3457 69.5883 36.6202 70.7607C37.1651 73.0887 37.7072 75.4173 38.2464 77.7466C39.2518 82.0851 40.28 86.418 41.3128 90.75C41.5068 91.5667 41.7009 92.3834 41.9007 93.2249C44.0073 102.074 46.1613 110.912 48.3128 119.75C48.7 121.341 49.0871 122.932 49.4742 124.523C51.2309 131.74 52.9893 138.957 54.7531 146.173C55.4943 149.206 56.2337 152.24 56.9728 155.275C57.3212 156.703 57.6703 158.131 58.0203 159.559C58.5052 161.537 58.9872 163.517 59.4691 165.496C59.878 167.169 59.878 167.169 60.2953 168.877C62.4555 178.446 62.511 186.518 60.0003 196C59.3403 196 58.6803 196 58.0003 196C57.8937 195.303 57.787 194.607 57.6771 193.889C56.363 185.635 54.624 177.519 52.7503 169.375C52.4354 167.994 52.1207 166.614 51.8063 165.233C49.7187 156.079 47.6059 146.931 45.4862 137.785C43.8216 130.592 42.1779 123.395 40.5433 116.195C40.2155 114.751 40.2155 114.751 39.8811 113.278C38.7871 108.458 37.6943 103.638 36.6026 98.8176C36.3973 97.9122 36.1919 97.0068 35.9803 96.074C35.5743 94.2833 35.1693 92.4924 34.7654 90.7013C33.8165 86.511 32.8439 82.3298 31.806 78.1606C31.5249 77.0181 31.5249 77.0181 31.2382 75.8526C30.8915 74.4517 30.5377 73.0527 30.1744 71.6561C28.8678 66.3517 27.9232 60.6929 30.0003 55.5C30.3303 55.005 30.6603 54.51 31.0003 54Z" fill="#BB7430"/>
<path d="M159 126C159 127.32 159 128.64 159 130C145.925 134.091 132.807 137.924 119.566 141.441C112.773 143.247 106.003 145.114 99.25 147.062C91.8214 149.199 84.3869 151.312 76.9375 153.375C75.5352 153.77 75.5352 153.77 74.1045 154.172C73.2334 154.412 72.3623 154.651 71.4648 154.898C70.6978 155.112 69.9307 155.325 69.1404 155.544C67 156 67 156 63 156C62.34 153.36 61.68 150.72 61 148C70.6196 145.09 80.2681 142.744 90.0999 140.679C94.1508 139.827 98.1982 138.96 102.246 138.094C103.063 137.919 103.881 137.745 104.723 137.565C112.829 135.832 120.916 134.021 129 132.188C130.225 131.91 131.45 131.632 132.713 131.346C137.363 130.29 142.012 129.234 146.652 128.135C147.819 127.86 148.986 127.585 150.188 127.301C151.233 127.051 152.278 126.801 153.355 126.544C156 126 156 126 159 126Z" fill="#BA7432"/>
<path d="M309.562 118.876C310.595 118.894 311.628 118.912 312.691 118.93C313.834 118.965 313.834 118.965 315 119.001C314.67 119.991 314.34 120.981 314 122.001C312.188 122.797 312.188 122.797 309.785 123.395C308.884 123.625 307.984 123.856 307.055 124.093C306.068 124.331 305.08 124.568 304.062 124.813C302.53 125.197 302.53 125.197 300.966 125.588C287.311 128.974 273.595 132.139 259.848 135.126C251.897 136.853 244.08 138.758 236.266 141.048C232.978 142.007 229.685 142.934 226.375 143.813C225.434 144.067 224.493 144.321 223.523 144.583C220.918 145.014 219.453 144.919 217 144.001C215.25 142.563 215.25 142.563 214 141.001C214 140.341 214 139.681 214 139.001C214.983 138.783 214.983 138.783 215.987 138.561C239.663 133.317 263.32 127.987 286.964 122.598C288.549 122.237 290.134 121.878 291.72 121.521C293.271 121.167 294.819 120.801 296.364 120.425C300.85 119.358 304.919 118.769 309.562 118.876Z" fill="#B77434"/>
<path d="M176 205C175.43 209.395 174.683 213.604 173.5 217.875C173.242 218.821 172.984 219.768 172.719 220.742C172 223 172 223 171 224C169.219 224.088 167.435 224.107 165.652 224.098C164.573 224.095 163.493 224.091 162.381 224.088C161.245 224.08 160.108 224.071 158.938 224.063C157.797 224.058 156.657 224.054 155.482 224.049C152.655 224.037 149.827 224.021 147 224C146.678 222.43 146.358 220.86 146.039 219.289C145.861 218.415 145.682 217.54 145.499 216.639C144.831 213.104 144.397 209.575 144 206C154.623 204.607 165.311 204.904 176 205Z" fill="#C07632"/>
<path d="M283 143C283.839 147.144 284.675 151.288 285.509 155.433C285.792 156.84 286.076 158.247 286.361 159.654C286.773 161.687 287.181 163.72 287.59 165.754C287.959 167.584 287.959 167.584 288.336 169.451C288.992 172.958 289.522 176.465 290 180C286.7 180 283.4 180 280 180C278.999 175.498 278.002 170.996 277.009 166.493C276.671 164.961 276.331 163.429 275.991 161.898C275.501 159.697 275.016 157.495 274.531 155.293C274.378 154.608 274.225 153.924 274.067 153.219C273.452 150.408 273 147.888 273 145C276.544 143.38 279.127 142.896 283 143Z" fill="#B97639"/>
<path d="M300 244C301.65 244 303.3 244 305 244C305.115 244.559 305.23 245.119 305.348 245.695C305.917 248.464 306.49 251.232 307.062 254C307.28 255.052 307.498 256.104 307.722 257.188C309.055 263.591 310.431 269.984 311.855 276.367C312.012 277.073 312.169 277.78 312.331 278.507C313.268 282.723 313.268 282.723 314.218 286.936C315.955 294.595 317.504 302.144 318 310C316.68 309.67 315.36 309.34 314 309C312.485 302.582 310.974 296.163 309.465 289.743C308.953 287.566 308.44 285.389 307.926 283.212C300 249.633 300 249.633 300 244Z" fill="#B57334"/>
<path d="M230.999 151C233.309 151 235.619 151 237.999 151C237.395 158.247 235.884 164.985 233.999 172C233.726 173.048 233.453 174.096 233.171 175.176C231.137 182.862 231.137 182.862 229.999 184C228 184.041 225.999 184.043 223.999 184C223.601 176.94 225.065 170.908 226.937 164.125C227.215 163.081 227.492 162.037 227.779 160.961C229.824 153.35 229.824 153.35 230.999 151Z" fill="#B77634"/>
<path d="M201 251C202.32 251.33 203.64 251.66 205 252C203.545 259.032 201.652 265.883 199.645 272.776C198.332 277.305 197.044 281.841 195.75 286.375C195.224 288.216 194.698 290.057 194.172 291.898C193.833 293.084 193.833 293.084 193.487 294.294C193.326 294.857 193.166 295.42 193 296C192.01 296 191.02 296 190 296C193.408 280.926 196.94 265.912 201 251Z" fill="#BA7934"/>
<path d="M229 190C228.01 191.485 228.01 191.485 227 193C229.475 193.495 229.475 193.495 232 194C232 194.33 232 194.66 232 195C228.501 195.339 225 195.67 221.5 196C220.518 196.095 219.535 196.191 218.523 196.289C212.986 196.806 207.561 197.106 202 197C202 196.67 202 196.34 202 196C204.31 196 206.62 196 209 196C209 195.01 209 194.02 209 193C206.36 192.67 203.72 192.34 201 192C201 191.67 201 191.34 201 191C210.348 190.336 219.621 189.84 229 190Z" fill="#AA7031"/>
<path d="M142 195C150.91 195 159.82 195 169 195C169 195.33 169 195.66 169 196C172.3 196.33 175.6 196.66 179 197C179 197.33 179 197.66 179 198C166.659 199.077 154.381 199.11 142 199C142 197.68 142 196.36 142 195Z" fill="#BD732F"/>
<path d="M184 193C183.34 194.32 182.68 195.64 182 197C186.62 197 191.24 197 196 197C196 197.33 196 197.66 196 198C185.308 198.872 174.724 199.118 164 199C165.32 198.01 166.64 197.02 168 196C164.04 195.67 160.08 195.34 156 195C156 194.67 156 194.34 156 194C159.354 193.831 162.708 193.665 166.062 193.5C167.005 193.452 167.948 193.405 168.92 193.356C173.954 193.11 178.96 192.944 184 193Z" fill="#A86D2E"/>
<path d="M291 186C290.01 187.485 290.01 187.485 289 189C289.66 189.66 290.32 190.32 291 191C283.08 191.495 283.08 191.495 275 192C275 191.67 275 191.34 275 191C273.35 190.67 271.7 190.34 270 190C270 189.67 270 189.34 270 189C267.03 188.67 264.06 188.34 261 188C261 187.67 261 187.34 261 187C271.009 186.377 280.966 185.823 291 186Z" fill="#A96D33"/>
<path d="M159 126C159 127.32 159 128.64 159 130C156.378 130.863 153.753 131.716 151.125 132.562C150.379 132.809 149.632 133.056 148.863 133.311C143.227 135.113 143.227 135.113 141 134C141 133.34 141 132.68 141 132C140.34 131.34 139.68 130.68 139 130C141.77 129.329 144.541 128.663 147.312 128C148.098 127.809 148.884 127.618 149.693 127.422C150.451 127.241 151.208 127.061 151.988 126.875C152.685 126.707 153.381 126.54 154.099 126.367C156 126 156 126 159 126Z" fill="#B07433"/>
<path d="M39 296C39.33 296.66 39.66 297.32 40 298C42.0246 298.652 42.0246 298.652 44 299C43.5464 300.585 43.0869 302.168 42.625 303.75C42.3698 304.632 42.1145 305.513 41.8516 306.422C40.3544 310.955 40.3544 310.955 39 313C37.68 313.33 36.36 313.66 35 314C36.32 308.06 37.64 302.12 39 296Z" fill="#AF7034"/>
<path d="M225 150C223.849 155.398 222.576 160.71 221 166C219.306 162.953 218.505 160.172 217.875 156.75C217.707 155.858 217.54 154.966 217.367 154.047C217.185 153.034 217.185 153.034 217 152C220.088 150.235 221.233 150 225 150Z" fill="#7B846D"/>
<path d="M196 270C200.185 278.37 195.784 287.622 193 296C192.01 296 191.02 296 190 296C191.98 287.42 193.96 278.84 196 270Z" fill="#A06A2F"/>
<path d="M231.699 189.609C233.178 189.679 233.178 189.679 234.688 189.75C235.681 189.786 236.675 189.822 237.699 189.859C238.838 189.929 238.838 189.929 240 190C240 190.33 240 190.66 240 191C243.96 191.33 247.92 191.66 252 192C252 192.33 252 192.66 252 193C243.339 194.26 234.73 194.09 226 194C227.667 191.109 228.312 190.1 231.699 189.609Z" fill="#C17B31"/>
<path d="M155 195C159.62 195 164.24 195 169 195C169 195.33 169 195.66 169 196C172.3 196.33 175.6 196.66 179 197C179 197.33 179 197.66 179 198C172.73 198 166.46 198 160 198C160 197.67 160 197.34 160 197C158.35 196.67 156.7 196.34 155 196C155 195.67 155 195.34 155 195Z" fill="#CB792B"/>
<path d="M177 124C176.67 124.99 176.34 125.98 176 127C173.249 127.917 171.641 128.109 168.812 128.063C166.925 128.032 166.925 128.032 165 128C165 127.01 165 126.02 165 125C169.053 124.018 172.839 123.918 177 124Z" fill="#AD7932"/>
<path d="M199 264C199.66 264 200.32 264 201 264C200.886 265.459 200.758 266.917 200.625 268.375C200.555 269.187 200.486 269.999 200.414 270.836C200 273 200 273 198 275C197 274 197 274 196.812 270.625C197 267 197 267 199 264Z" fill="#BD7A35"/>
<path d="M268 129.001C268.66 129.991 269.32 130.981 270 132.001C267.291 133.355 264.991 133.066 262 133.001C262 132.341 262 131.681 262 131.001C261.01 130.671 260.02 130.341 259 130.001C262.262 128.913 264.584 128.71 268 129.001Z" fill="#C87A2F"/>
<path d="M199 257C199.99 257 200.98 257 202 257C202.931 259.606 203.149 260.642 202.062 263.25C201.537 264.116 201.537 264.116 201 265C200.01 265 199.02 265 198 265C198.33 262.36 198.66 259.72 199 257Z" fill="#AD7233"/>
<path d="M132 226C132.33 226 132.66 226 133 226C132.67 228.64 132.34 231.28 132 234C131.34 234 130.68 234 130 234C130 235.65 130 237.3 130 239C129.67 239 129.34 239 129 239C128.34 236.03 127.68 233.06 127 230C128.65 230 130.3 230 132 230C132 228.68 132 227.36 132 226Z" fill="#3D4235"/>
<path d="M196 270C197.984 272.917 197.988 274.124 197.625 277.75C197.419 278.822 197.213 279.895 197 281C196.34 281 195.68 281 195 281C194.875 273.375 194.875 273.375 196 270Z" fill="#AC7134"/>
<path d="M58.999 187C59.659 187 60.319 187 60.999 187C60.669 189.97 60.339 192.94 59.999 196C59.339 196 58.679 196 57.999 196C57.9014 189.848 57.9014 189.848 57.999 188C58.329 187.67 58.659 187.34 58.999 187Z" fill="#A66F38"/>
<path d="M64 161C65.32 161 66.64 161 68 161C67.7444 163.343 67.4073 165.678 67 168C66.01 168.495 66.01 168.495 65 169C64.67 166.36 64.34 163.72 64 161Z" fill="#A1733B"/>
<path d="M312 292C312.99 292 313.98 292 315 292C315.33 294.31 315.66 296.62 316 299C315.67 298.01 315.34 297.02 315 296C313.68 296.33 312.36 296.66 311 297C311.33 295.35 311.66 293.7 312 292Z" fill="#A46C34"/>
<path d="M312 296C312.99 296 313.98 296 315 296C315.33 297.98 315.66 299.96 316 302C315.01 302 314.02 302 313 302C312.67 300.02 312.34 298.04 312 296Z" fill="#BD7736"/>
<path d="M159 126C159 127.32 159 128.64 159 130C157.68 130.33 156.36 130.66 155 131C155 130.34 155 129.68 155 129C154.34 128.34 153.68 127.68 153 127C156 126 156 126 159 126Z" fill="#986932"/>
<path d="M298 121C301 122 301 122 303 124C301.02 124.33 299.04 124.66 297 125C297 122 297 122 298 121Z" fill="#BF762E"/>
</svg>
