<svg width="703" height="229" viewBox="0 0 703 229" fill="none" xmlns="http://www.w3.org/2000/svg">
<path d="M595.684 6.22229C601.983 11.5912 601.983 11.5912 602.562 15.6051C602.798 20.2712 602.686 23.726 599.879 27.5934C597.144 30.3417 595.04 30.9775 591.191 31.1559C588.035 30.9003 586.246 30.4643 583.379 29.0309C580.879 26.0159 579.548 23.0318 578.148 19.3942C577.413 17.2887 577.413 17.2887 575.254 16.4684C571.143 16.1056 571.143 16.1056 567.379 17.5309C565.567 20.6516 565.84 22.9211 566.254 26.4684C568.981 32.7169 573.346 36.8357 578.254 41.4684C587.803 50.79 596.268 61.2269 596.685 75.2281C596.725 88.6812 593.776 100.738 585.254 111.468C584.676 112.335 584.099 113.201 583.504 114.093C573.385 124.775 559.203 130.336 544.676 130.734C542.785 130.739 540.894 130.734 539.004 130.718C538.05 130.726 537.096 130.734 536.113 130.742C531.06 130.728 527.006 130.366 522.254 128.468C518.605 128.031 516.968 127.999 513.879 130.031C511.621 133.418 511.693 135.47 512.254 139.468C514.458 143.011 516.439 144.881 520.254 146.468C523.386 146.913 526.531 146.848 529.691 146.843C530.619 146.845 531.546 146.846 532.501 146.847C539.178 146.748 545.423 145.869 551.941 144.468C564.339 141.823 578.905 139.352 590.254 146.468C596.167 150.522 601.211 155.465 603.254 162.468C604.877 174.473 603.628 186.765 596.379 196.781C595.349 198.02 594.308 199.25 593.254 200.468C592.803 201.061 592.352 201.654 591.887 202.265C580.643 216.622 557.936 225.947 540.254 228.468C536.069 228.698 531.888 228.738 527.698 228.764C525.721 228.781 523.744 228.824 521.768 228.869C510.454 228.943 498.084 227.237 489.254 219.468C484.469 214.652 482.825 210.241 482.504 203.468C482.831 196.722 484.381 192.201 489.254 187.468C494.182 183.556 498.865 181.706 505.184 182.113C509.762 182.899 512.487 184.618 515.566 188.031C518.001 191.547 518.388 193.546 518.629 197.781C519 202.078 519.325 205.121 522.254 208.468C528.578 213.2 536.742 212.414 544.254 211.468C556.807 208.872 571.247 202.232 580.129 192.843C582.533 189.026 583.073 186.896 583.254 182.468C579.009 179.101 576.004 178.342 570.625 178.336C569.507 178.334 568.388 178.333 567.236 178.332C566.067 178.336 564.897 178.339 563.691 178.343C562.549 178.34 561.406 178.336 560.229 178.332C554.309 178.338 548.528 178.568 542.647 179.233C528.056 180.671 510.384 181.325 498.152 172.14C492.377 167.054 487.809 161.583 486.75 153.734C486.385 142.959 488.466 136.769 495.809 128.64C498.219 126.139 500.6 123.711 503.254 121.468C503.914 121.468 504.574 121.468 505.254 121.468C504.573 120.808 503.893 120.148 503.191 119.468C502.209 118.472 501.23 117.471 500.254 116.468C499.422 115.631 499.422 115.631 498.574 114.777C493.454 109.327 490.202 103.315 487.254 96.4684C486.877 95.597 486.501 94.7256 486.113 93.8278C483.269 82.7081 483.276 67.2435 488.648 56.9957C489.178 56.1617 489.708 55.3277 490.254 54.4684C490.835 53.5209 491.417 52.5735 492.016 51.5973C500.215 39.3395 512.788 30.6584 527.254 27.4684C531.029 27.2188 534.784 27.2337 538.566 27.2809C539.567 27.2815 540.568 27.2822 541.6 27.2828C548.972 27.3276 548.972 27.3276 551.254 28.4684C551.202 27.2734 551.202 27.2734 551.148 26.0543C550.961 18.7073 550.952 13.9485 556.211 8.40588C567.15 -2.03026 583.271 -2.73804 595.684 6.22229Z" fill="#C57A37"/>
<path d="M106.239 39.9374C113.44 45.7228 118.532 53.0182 119.575 62.328C119.901 70.8732 118.223 77.525 112.38 83.9062C106.992 88.7202 101.148 88.9196 94.165 88.7812C88.6341 88.1872 85.7024 85.9533 81.8174 81.9687C79.4604 76.6891 79.2129 72.149 80.2549 66.4687C81.8567 62.951 83.6605 59.7432 85.7236 56.4765C87.4271 53.1303 87.6901 51.1708 87.2549 47.4687C84.7272 44.0984 82.1968 42.7734 78.2549 41.4687C67.8065 40.2567 60.4002 41.7991 52.0752 48.1249C43.8727 55.4298 39.1142 66.8195 38.0356 77.6752C37.2464 93.0547 39.427 107.554 50.0322 119.465C60.2223 129.155 71.6908 130.85 85.083 130.684C96.454 130.351 107.994 127.427 116.567 119.594C119.255 117.469 119.255 117.469 122.005 117.531C124.255 118.469 124.255 118.469 126.255 120.469C125.388 131.431 119.609 142.524 112.255 150.469C111.599 151.227 110.943 151.985 110.267 152.766C101.289 162.547 89.0859 168.845 75.7617 169.612C55.6261 170.331 38.1073 168.168 22.6924 154.094C15.5798 147.252 10.6864 139.74 6.44237 130.906C6.15193 130.305 5.86149 129.704 5.56225 129.085C-1.61753 113.39 -1.47756 90.9871 3.86816 74.7812C8.46438 63.802 13.7679 54.9556 22.2549 46.4687C22.7937 45.8473 23.3325 45.226 23.8877 44.5858C44.7352 21.2241 82.5646 22.4144 106.239 39.9374Z" fill="#162F31"/>
<path d="M161.004 29.2812C161.762 29.2671 162.52 29.2529 163.301 29.2383C165.254 29.4688 165.254 29.4688 167.254 31.4688C167.494 33.7213 167.494 33.7213 167.481 36.561C167.481 37.622 167.481 38.6829 167.48 39.776C167.47 40.925 167.46 42.074 167.449 43.2578C167.446 44.4314 167.444 45.6049 167.441 46.8141C167.429 50.5741 167.404 54.3338 167.379 58.0938C167.369 60.638 167.36 63.1823 167.352 65.7266C167.329 71.974 167.296 78.2214 167.254 84.4688C167.914 84.4688 168.574 84.4688 169.254 84.4688C169.532 83.4169 169.532 83.4169 169.816 82.3438C172.513 76.9506 177.921 73.1352 183.254 70.4688C192.9 68.1393 202.443 68.7714 211.254 73.4688C216.941 77.549 220.171 82.8529 222.254 89.4688C222.759 93.3052 222.742 97.0767 222.688 100.941C222.697 103.163 222.707 105.385 222.717 107.607C222.708 111.061 222.692 114.513 222.669 117.967C222.238 140.431 222.238 140.431 231.254 160.469C231.566 163.594 231.566 163.594 231.254 166.469C228.818 168.904 228.191 168.724 224.852 168.743C223.941 168.753 223.03 168.762 222.091 168.772C220.611 168.771 220.611 168.771 219.102 168.77C218.09 168.774 217.079 168.778 216.038 168.783C213.897 168.788 211.756 168.789 209.615 168.784C206.333 168.781 203.053 168.805 199.771 168.83C197.694 168.832 195.617 168.833 193.539 168.832C192.555 168.841 191.57 168.85 190.556 168.86C189.185 168.851 189.185 168.851 187.785 168.841C186.579 168.842 186.579 168.842 185.348 168.843C182.724 168.374 181.816 167.602 180.254 165.469C180.332 161.862 180.806 160.006 183.129 157.219C186.128 153.337 187.054 149.17 188.254 144.469C188.428 143.922 188.602 143.376 188.782 142.813C189.468 139.406 189.417 136.016 189.422 132.555C189.425 131.785 189.429 131.015 189.432 130.222C189.437 128.593 189.439 126.964 189.439 125.335C189.441 122.873 189.46 120.411 189.479 117.949C190.006 103.919 190.006 103.919 184.941 91.3438C182.432 89.3555 182.432 89.3555 179.754 88.8438C175.958 89.7928 174.662 91.3817 172.254 94.4688C167.576 102.449 167.637 110.87 167.732 119.835C167.754 122.201 167.733 124.564 167.707 126.93C167.687 137.785 168.18 149.573 175.066 158.531C177.254 161.469 177.254 161.469 177.191 164.281C176.254 166.469 176.254 166.469 174.254 168.469C172.287 168.729 172.287 168.729 169.852 168.743C168.941 168.753 168.03 168.762 167.091 168.772C166.104 168.771 165.118 168.77 164.102 168.77C163.09 168.774 162.079 168.778 161.038 168.783C158.897 168.788 156.756 168.789 154.615 168.784C151.333 168.781 148.053 168.805 144.771 168.83C142.694 168.832 140.617 168.833 138.539 168.832C137.555 168.841 136.57 168.85 135.556 168.86C134.185 168.851 134.185 168.851 132.785 168.841C131.579 168.842 131.579 168.842 130.348 168.843C127.739 168.377 126.833 167.563 125.254 165.469C125.254 161.912 126.689 159.74 128.629 156.906C135.435 146.264 134.728 133.573 134.723 121.422C134.73 119.597 134.737 117.773 134.746 115.948C134.759 112.146 134.761 108.344 134.755 104.542C134.749 99.6838 134.78 94.8271 134.82 89.9696C134.846 86.2102 134.849 82.4511 134.845 78.6916C134.847 76.9007 134.856 75.1099 134.874 73.3191C135.247 60.4494 135.247 60.4494 129.254 49.4688C128.326 48.7675 127.398 48.0663 126.441 47.3438C124.254 45.4688 124.254 45.4688 123.691 42.4062C124.254 39.4688 124.254 39.4688 125.977 37.8833C128.406 36.3743 130.487 35.6318 133.246 34.8984C134.199 34.6419 135.151 34.3854 136.133 34.1211C137.122 33.8646 138.11 33.608 139.129 33.3438C140.11 33.0795 141.091 32.8152 142.102 32.543C148.374 30.8755 154.479 29.3375 161.004 29.2812Z" fill="#152E31"/>
<path d="M682.255 78.4688C692.392 85.6791 699.037 95.495 702.255 107.469C702.801 111.633 702.877 115.71 702.818 119.906C702.801 121.559 702.801 121.559 702.785 123.245C702.572 131.213 701.646 137.659 697.255 144.469C696.662 145.427 696.069 146.384 695.458 147.371C688.476 157.775 678.002 166.101 665.619 169.109C652.505 170.511 637.765 171.78 626.255 164.469C625.308 163.887 624.36 163.306 623.384 162.707C612.578 155.479 604.505 145.072 600.943 132.469C598.985 121.91 598.821 109.36 603.255 99.4688C603.584 98.7276 603.913 97.9864 604.251 97.2227C610.565 84.6181 621.156 75.7829 634.318 71.0313C651.3 66.3038 667.38 69.7296 682.255 78.4688Z" fill="#C57936"/>
<path d="M307.129 75.2187C314.669 80.7678 319.811 87.7128 321.791 96.9809C322.395 101.528 322.409 106 322.43 110.582C322.453 112.572 322.477 114.562 322.502 116.553C322.537 119.666 322.567 122.779 322.58 125.893C322.596 128.915 322.636 131.936 322.68 134.957C322.678 135.876 322.676 136.795 322.674 137.742C322.801 144.506 324.007 151.071 328.843 156.131C330.637 157.684 330.637 157.684 333.254 159.469C333.192 161.219 333.192 161.219 332.254 163.469C323.434 169.716 312.835 170.622 302.254 169.469C298.168 167.712 294.95 166.063 292.254 162.469C291.868 160.144 291.529 157.81 291.254 155.469C290.565 156.072 289.875 156.675 289.164 157.297C277.682 167.063 268.218 170.303 253.274 169.643C247.225 169.12 242.981 166.559 238.879 162.219C233.569 155.257 232.203 148.129 233.254 139.469C235.418 130.253 240.522 124.426 248.442 119.476C256.224 115.057 264.425 111.563 272.732 108.258C280.133 105.276 286.537 101.903 290.254 94.4687C290.603 90.7065 290.761 88.3274 288.817 85.0312C285.059 82.7396 281.553 82.9858 277.254 83.4687C276.264 83.7987 275.274 84.1287 274.254 84.4687C273.332 86.5969 273.332 86.5969 272.754 89.1562C270.695 96.5697 268.483 100.927 262.254 105.469C257.631 107.01 253.077 107.117 248.254 106.469C244.89 103.912 242.582 101.661 241.946 97.4023C241.633 91.3552 242.567 87.4394 246.227 82.5741C252.59 75.9661 260.448 72.5094 269.254 70.4687C269.843 70.2856 270.432 70.1026 271.039 69.914C282.775 67.5545 296.928 68.8811 307.129 75.2187Z" fill="#162F31"/>
<path d="M466.754 70.6561C471.509 74.1038 476.581 78.3345 477.573 84.4296C477.73 86.7226 477.772 88.9828 477.754 91.2811C477.75 92.0863 477.745 92.8915 477.741 93.7211C477.566 99.7912 476.636 104.038 472.254 108.469C471.573 109.294 470.893 110.119 470.191 110.969C465.343 113.444 460.563 113.403 455.254 112.469C451.411 110.474 449.073 108.042 447.082 104.219C446.042 100.765 446.062 97.7567 446.129 94.1561C446.147 92.9019 446.165 91.6476 446.184 90.3554C446.207 89.4027 446.23 88.4501 446.254 87.4686C442.11 88.4912 442.11 88.4912 438.863 91.0624C434.503 100.734 433.904 110.222 433.938 120.754C433.941 122.768 433.918 124.781 433.893 126.795C433.887 138.526 434.818 149.946 442.254 159.469C442.584 159.799 442.914 160.129 443.254 160.469C443.441 163.406 443.441 163.406 443.254 166.469C440.778 168.944 440.061 168.721 436.652 168.727C435.698 168.734 434.744 168.74 433.76 168.747C432.21 168.74 432.21 168.74 430.629 168.734C429.571 168.736 428.513 168.738 427.423 168.74C425.184 168.741 422.944 168.738 420.705 168.729C417.268 168.719 413.832 168.729 410.395 168.742C408.223 168.741 406.051 168.738 403.879 168.734C402.846 168.738 401.812 168.742 400.748 168.747C399.793 168.74 398.839 168.734 397.855 168.727C397.013 168.726 396.171 168.724 395.303 168.723C393.254 168.469 393.254 168.469 391.254 166.469C390.879 163.656 390.879 163.656 391.254 160.469C391.831 159.767 392.409 159.066 393.004 158.344C400.722 148.481 399.847 136.022 399.72 124.149C399.691 121.145 399.7 118.143 399.713 115.139C399.707 113.211 399.698 111.283 399.688 109.355C399.69 108.467 399.693 107.578 399.696 106.662C399.605 100.619 398.907 95.3602 394.648 90.7186C394.126 90.3061 393.604 89.8936 393.066 89.4686C390.308 86.9485 390.272 86.6546 389.879 82.5936C390.003 81.5624 390.126 80.5311 390.254 79.4686C402.25 72.4711 416.528 70.3831 430.254 70.4686C430.914 70.7986 431.574 71.1286 432.254 71.4686C432.668 74.1913 432.668 74.1913 432.879 77.5311C432.954 78.6359 433.028 79.7406 433.105 80.8788C433.154 81.7334 433.203 82.5881 433.254 83.4686C433.89 82.6894 433.89 82.6894 434.539 81.8944C443.221 71.5715 453.011 65.9932 466.754 70.6561Z" fill="#173032"/>
<path d="M375.975 71.5801C377.871 74.3794 377.64 76.641 377.655 80.0005C377.665 80.989 377.665 80.989 377.676 81.9974C377.696 84.1781 377.695 86.3583 377.695 88.5391C377.707 90.0603 377.72 91.5814 377.735 93.1025C377.772 97.1137 377.792 101.125 377.807 105.136C377.832 111.534 377.872 117.933 377.929 124.331C377.945 126.556 377.949 128.781 377.952 131.006C377.843 144.365 377.843 144.365 383.316 156.219C385.628 159.271 387.047 161.576 387.254 165.469C385.678 167.599 384.76 168.378 382.129 168.85C381.31 168.852 380.491 168.855 379.646 168.857C378.715 168.866 377.784 168.876 376.825 168.886C375.822 168.88 374.819 168.873 373.785 168.867C372.753 168.87 371.721 168.873 370.658 168.876C368.476 168.878 366.294 168.872 364.112 168.86C360.767 168.844 357.423 168.86 354.078 168.879C351.96 168.877 349.841 168.873 347.723 168.867C346.719 168.873 345.716 168.879 344.683 168.886C343.286 168.871 343.286 168.871 341.861 168.857C340.632 168.853 340.632 168.853 339.379 168.85C336.748 168.378 335.835 167.594 334.254 165.469C334.34 162.211 335.004 160.76 337.129 158.281C340.095 154.355 341.049 150.187 342.254 145.469C342.428 144.848 342.603 144.227 342.782 143.588C343.273 141.383 343.394 139.419 343.415 137.163C343.429 135.901 343.429 135.901 343.444 134.613C343.448 133.712 343.453 132.811 343.457 131.883C343.463 130.948 343.468 130.014 343.474 129.051C343.484 127.076 343.49 125.1 343.494 123.125C343.504 120.112 343.535 117.099 343.566 114.086C343.573 112.164 343.578 110.242 343.582 108.32C343.594 107.423 343.607 106.526 343.619 105.602C343.598 99.5301 342.746 95.1207 338.43 90.5274C337.815 89.9924 337.2 89.4575 336.566 88.9063C333.331 85.8076 333.331 85.8076 332.629 82.7188C333.402 79.9362 333.966 79.2456 336.254 77.4688C338.908 76.4953 341.476 75.6606 344.191 74.9063C345.332 74.582 345.332 74.582 346.496 74.2513C370.018 67.7336 370.018 67.7336 375.975 71.5801Z" fill="#183133"/>
<path d="M541.255 41.4688C546.18 43.242 549.598 45.962 552.255 50.4688C553.567 53.7422 554.469 57.0341 555.255 60.4688C555.426 61.1494 555.596 61.8299 555.772 62.5311C557.462 69.8731 557.553 77.0222 557.505 84.5313C557.516 86.3538 557.516 86.3538 557.528 88.213C557.507 98.2724 556.988 106.82 550.317 114.781C545.458 117.459 540.673 117.184 535.255 116.469C530.74 114.306 529.008 110.858 527.235 106.344C526.912 105.395 526.588 104.446 526.255 103.469C525.88 102.376 525.505 101.283 525.118 100.156C522.214 90.5606 521.828 80.9328 521.755 70.9688C521.727 69.0368 521.727 69.0368 521.699 67.0658C521.75 59.241 522.158 51.8171 527.773 45.8575C532.378 41.878 535.205 41.0655 541.255 41.4688Z" fill="#EBE8DE"/>
<path d="M657.377 83.9689C664.652 90.2954 666.194 97.1257 667.252 106.469C667.511 111.14 667.533 115.791 667.502 120.469C667.51 121.65 667.517 122.83 667.525 124.047C667.478 145.551 667.478 145.551 661.252 152.469C657.362 155.829 654.279 157.199 649.209 156.918C644.607 155.862 642.013 152.61 639.502 148.844C635.89 139.091 635.908 129.015 635.936 118.753C635.939 116.341 635.916 113.931 635.891 111.52C635.853 102.376 635.978 94.4328 641.189 86.5314C645.983 81.7383 651.139 80.9745 657.377 83.9689Z" fill="#EBE8DD"/>
<path d="M366.588 29.1015C371.932 31.3744 375.926 35.1337 378.252 40.4687C379.249 45.8632 379.473 50.9572 377.033 55.9765C374.231 59.8514 370.954 63.5276 366.334 65.1367C360.682 66.038 354.569 66.5939 349.377 63.8437C345.165 60.6423 341.965 57.6068 340.252 52.4687C339.774 47.0328 339.512 42.1329 341.752 37.0937C349.27 29.1997 355.49 26.095 366.588 29.1015Z" fill="#162F31"/>
<path d="M290.255 114.469C290.343 117.969 290.396 121.468 290.442 124.969C290.468 125.951 290.493 126.933 290.519 127.945C290.585 134.571 290.261 140.611 286.015 146.061C283.344 148.659 280.832 149.847 277.192 150.156C273.255 149.469 273.255 149.469 270.255 147.031C267.933 143.694 267.578 140.696 267.853 136.691C269.346 128.439 276.004 123.435 282.255 118.469C288.201 114.469 288.201 114.469 290.255 114.469Z" fill="#E7E5DB"/>
</svg>
